Coordinates
version=1
nRows=16
nColumns=40
inDegrees=yes

Units are S.I. units (second, meters, Newtons, ...)
Angles are in degrees.

endheader
time	pelvis_tilt	pelvis_list	pelvis_rotation	pelvis_tx	pelvis_ty	pelvis_tz	hip_flexion_r	hip_adduction_r	hip_rotation_r	knee_angle_r	knee_angle_r_beta	ankle_angle_r	subtalar_angle_r	mtp_angle_r	hip_flexion_l	hip_adduction_l	hip_rotation_l	knee_angle_l	knee_angle_l_beta	ankle_angle_l	subtalar_angle_l	mtp_angle_l	lumbar_extension	lumbar_bending	lumbar_rotation	arm_flex_r	arm_add_r	arm_rot_r	elbow_flex_r	pro_sup_r	wrist_flex_r	wrist_dev_r	arm_flex_l	arm_add_l	arm_rot_l	elbow_flex_l	pro_sup_l	wrist_flex_l	wrist_dev_l
      5.09999967	      7.89627750	      8.93315064	     -6.05993918	      0.94924133	      1.09088374	     -0.48810160	      3.21399880	    -12.63517547	      8.05985499	     71.65272247	     71.65272247	     -2.79346499	      0.00000000	      0.00000000	      8.85679540	      9.18958442	     -9.79786363	     28.77337451	     28.77337451	      9.85098642	      0.00000000	      0.00000000	    -22.24909853	     -9.21638950	     -2.18740407	     -5.82264097	    -12.99782821	     -3.98955074	     36.38242185	     55.99679611	      0.00000000	      0.00000000	     -1.42236476	    -15.80691451	      7.84325135	     33.28439608	     56.00817042	      0.00000000	      0.00000000
      5.10833300	      7.81080463	      8.74304053	     -5.97720522	      0.94888022	      1.09244337	     -0.48884265	      4.69859434	    -12.29560093	      8.20714049	     72.34129698	     72.34129698	     -2.03164091	      0.00000000	      0.00000000	      8.10946166	      9.19135582	     -9.38922097	     28.40365029	     28.40365029	     10.17895142	      0.00000000	      0.00000000	    -22.18171827	     -8.85664859	     -2.77999536	     -5.73536572	    -13.13002504	     -3.18934781	     35.32056514	     55.82036245	      0.00000000	      0.00000000	     -1.34022220	    -16.01130472	      7.32260447	     33.72794276	     56.04846211	      0.00000000	      0.00000000
      5.11666633	      7.84189045	      8.41524987	     -5.95046891	      0.94851697	      1.09421478	     -0.48943418	      5.97090567	    -11.78550618	      8.35963971	     72.70175620	     72.70175620	     -1.24363194	      0.00000000	      0.00000000	      7.14382260	      9.04834948	     -9.04015984	     27.87852340	     27.87852340	     10.54906872	      0.00000000	      0.00000000	    -22.27991341	     -8.35865201	     -3.03569871	     -5.95622351	    -13.20325836	     -3.17553680	     34.77001058	     55.74295922	      0.00000000	      0.00000000	     -1.02698935	    -16.19932200	      7.22165639	     34.07044384	     56.06735617	      0.00000000	      0.00000000
      5.12499967	      7.81081685	      8.10862530	     -5.88031787	      0.94814181	      1.09583174	     -0.49007132	      7.27215787	    -11.30393500	      8.41129374	     72.86192390	     72.86192390	     -0.43315844	      0.00000000	      0.00000000	      6.24515920	      8.90257987	     -8.83526472	     27.34758870	     27.34758870	     10.86290369	      0.00000000	      0.00000000	    -22.29805905	     -7.87023743	     -3.32540824	     -6.16934746	    -13.27255539	     -3.14922615	     34.17966834	     55.67527397	      0.00000000	      0.00000000	     -0.73198838	    -16.36733842	      7.08829944	     34.43580766	     56.08789053	      0.00000000	      0.00000000
      5.13333300	      7.73032021	      7.80817069	     -5.79053428	      0.94771186	      1.09731755	     -0.49072589	      8.59524866	    -10.83842768	      8.38946131	     72.80730199	     72.80730199	      0.25705406	      0.00000000	      0.00000000	      5.39594274	      8.73318245	     -8.75863462	     26.79526554	     26.79526554	     11.13117657	      0.00000000	      0.00000000	    -22.29515909	     -7.38522552	     -3.60549164	     -6.43790276	    -13.35855079	     -3.14268092	     33.68822765	     55.62129620	      0.00000000	      0.00000000	     -0.42481633	    -16.52029230	      6.94766609	     34.78481190	     56.10108287	      0.00000000	      0.00000000
      5.14166633	      7.60722412	      7.51475369	     -5.70429431	      0.94722598	      1.09868401	     -0.49129591	      9.90931170	    -10.35367099	      8.36958185	     72.50549401	     72.50549401	      0.98019287	      0.00000000	      0.00000000	      4.58345167	      8.56302798	     -8.68550930	     26.20642922	     26.20642922	     11.39009728	      0.00000000	      0.00000000	    -22.22265744	     -6.91393250	     -3.84787467	     -6.68904231	    -13.44064336	     -3.13885681	     33.17665331	     55.56147790	      0.00000000	      0.00000000	     -0.08521418	    -16.70135349	      6.74209941	     35.17238054	     56.11805862	      0.00000000	      0.00000000
      5.14999967	      7.48803864	      7.23826974	     -5.63160337	      0.94672172	      1.09992415	     -0.49183387	     11.19513585	     -9.92879054	      8.25271390	     72.02092245	     72.02092245	      1.57522817	      0.00000000	      0.00000000	      3.78573200	      8.39066268	     -8.66944981	     25.64725678	     25.64725678	     11.61769206	      0.00000000	      0.00000000	    -22.15472971	     -6.47457914	     -4.06542744	     -6.97078341	    -13.52842266	     -3.14637765	     32.75046701	     55.50751312	      0.00000000	      0.00000000	      0.26198911	    -16.86726113	      6.54688972	     35.56207584	     56.13555093	      0.00000000	      0.00000000
      5.15833300	      7.36689170	      6.97292224	     -5.58130599	      0.94619769	      1.10105113	     -0.49220528	     12.41253144	     -9.49986784	      8.15570406	     71.27985596	     71.27985596	      2.18893515	      0.00000000	      0.00000000	      2.98992515	      8.22522966	     -8.57494119	     25.07434964	     25.07434964	     11.84990538	      0.00000000	      0.00000000	    -22.08893514	     -6.07661521	     -4.24198496	     -7.26377107	    -13.60043723	     -3.16085379	     32.31942752	     55.44629090	      0.00000000	      0.00000000	      0.58287399	    -17.03258515	      6.32806560	     36.02527806	     56.16013026	      0.00000000	      0.00000000
      5.16666633	      7.28090078	      6.73903415	     -5.54260901	      0.94571916	      1.10202639	     -0.49245240	     13.53881480	     -9.12740752	      7.99482311	     70.34230141	     70.34230141	      2.75366690	      0.00000000	      0.00000000	      2.17320462	      8.07831399	     -8.49040354	     24.52348774	     24.52348774	     12.07486776	      0.00000000	      0.00000000	    -22.04308561	     -5.72147514	     -4.41296763	     -7.57678513	    -13.65475437	     -3.18341610	     31.92700370	     55.38175210	      0.00000000	      0.00000000	      0.86929535	    -17.23037927	      6.11090185	     36.54574139	     56.18727612	      0.00000000	      0.00000000
      5.17499967	      7.56993083	      6.48119819	     -5.44106929	      0.94506429	      1.10350690	     -0.49263704	     14.14673469	     -8.79152966	      7.67956866	     69.16234480	     69.16234480	      3.36135817	      0.00000000	      0.00000000	      0.88643448	      7.94946842	     -8.23927098	     23.80631774	     23.80631774	     12.15224830	      0.00000000	      0.00000000	    -22.53000130	     -5.36693411	     -4.88906602	     -7.59215972	    -13.69520546	     -3.02699688	     31.41890252	     55.13862519	      0.00000000	      0.00000000	      0.98434757	    -17.42803407	      5.25393191	     37.50093519	     56.36928460	      0.00000000	      0.00000000
      5.18333300	      7.51379521	      6.31534922	     -5.40322147	      0.94454844	      1.10420226	     -0.49266042	     15.12537478	     -8.48651297	      7.47982740	     67.87106464	     67.87106464	      3.87847485	      0.00000000	      0.00000000	      0.04070145	      7.85354752	     -8.18930065	     23.23817410	     23.23817410	     12.37252153	      0.00000000	      0.00000000	    -22.52340406	     -5.11469380	     -5.06631399	     -7.89633929	    -13.72178923	     -3.02045870	     31.12123533	     55.02223184	      0.00000000	      0.00000000	      1.26262848	    -17.67812349	      5.08379758	     38.10120375	     56.44179327	      0.00000000	      0.00000000
      5.19166633	      7.68820605	      6.14718554	     -5.33547190	      0.94408363	      1.10519640	     -0.49273580	     15.72305403	     -8.23988998	      7.17484126	     66.29170016	     66.29170016	      4.38382380	      0.00000000	      0.00000000	     -1.09254495	      7.78877433	     -8.05553118	     22.57508186	     22.57508186	     12.47555956	      0.00000000	      0.00000000	    -22.79644700	     -4.86487599	     -5.34828703	     -8.09529984	    -13.74730788	     -3.03455783	     30.77197677	     54.82925583	      0.00000000	      0.00000000	      1.48604205	    -17.94033745	      4.78805525	     38.82792735	     56.53942396	      0.00000000	      0.00000000
      5.19999967	      7.57610941	      6.13666159	     -5.24758834	      0.94369653	      1.10548959	     -0.49279801	     16.64118104	     -8.14044821	      6.90804131	     64.64203703	     64.64203703	      4.67608281	      0.00000000	      0.00000000	     -1.77984557	      7.81812906	     -8.21075131	     22.21705118	     22.21705118	     12.66393886	      0.00000000	      0.00000000	    -22.68017845	     -4.76675329	     -5.56860459	     -8.48416065	    -13.75639483	     -3.03616173	     30.59533842	     54.76694186	      0.00000000	      0.00000000	      1.79408882	    -18.17493230	      4.68143152	     39.25933142	     56.55974084	      0.00000000	      0.00000000
      5.20833300	      8.01885755	      5.75767952	     -5.11083525	      0.94313898	      1.10680011	     -0.49293154	     16.70947633	     -7.72706756	      6.43808657	     62.59249039	     62.59249039	      5.17161157	      0.00000000	      0.00000000	     -3.33132214	      7.57424282	     -7.83701462	     21.26917404	     21.26917404	     12.65739530	      0.00000000	      0.00000000	    -23.34823107	     -4.27897351	     -5.92538893	     -8.51105818	    -13.81609522	     -2.99709706	     30.20158610	     54.46990650	      0.00000000	      0.00000000	      1.99456352	    -18.39001258	      4.23660208	     40.23028685	     56.70091257	      0.00000000	      0.00000000
      5.21666633	      7.97519848	      5.56161790	     -5.00400834	      0.94268056	      1.10699537	     -0.49291493	     17.37606877	     -7.42733099	      6.13995524	     60.54767008	     60.54767008	      5.51780651	      0.00000000	      0.00000000	     -4.20062654	      7.43941149	     -7.73818529	     20.66622291	     20.66622291	     12.80916934	      0.00000000	      0.00000000	    -23.36102597	     -3.98991087	     -6.14545308	     -8.76410450	    -13.85076225	     -2.94116357	     29.99965716	     54.29128246	      0.00000000	      0.00000000	      2.21785606	    -18.59883898	      4.03087572	     40.91234170	     56.78835761	      0.00000000	      0.00000000
      5.22499967	      7.83575798	      5.58957578	     -4.90886156	      0.94225893	      1.10672966	     -0.49280084	     18.14671703	     -7.37033764	      5.91843241	     58.40436265	     58.40436265	      5.73818573	      0.00000000	      0.00000000	     -4.82539839	      7.50513606	     -7.78448542	     20.36014583	     20.36014583	     12.98728394	      0.00000000	      0.00000000	    -23.20560469	     -3.96226809	     -6.35911052	     -9.11623346	    -13.84389423	     -2.93692056	     29.85342012	     54.21524899	      0.00000000	      0.00000000	      2.48859306	    -18.84637791	      3.92550702	     41.39565857	     56.81238036	      0.00000000	      0.00000000
